<?xml version="1.0" standalone="no"?><!DOCTYPE svg PUBLIC "-//W3C//DTD SVG 1.1//EN" "http://www.w3.org/Graphics/SVG/1.1/DTD/svg11.dtd"><svg t="1757489753875" class="icon" viewBox="0 0 2867 1024" version="1.1" xmlns="http://www.w3.org/2000/svg" p-id="1573" xmlns:xlink="http://www.w3.org/1999/xlink" width="559.9609375" height="200"><path d="M240.298667 701.917867l221.320533-367.752534h155.8528l-335.121067 534.596267H124.3136L15.906133 334.165333H176.128z" fill="#081E40" p-id="1574"></path><path d="M849.032533 268.970667H617.472l24.644267-130.048h628.053333l-24.576 129.979733h-241.4592l-113.390933 598.562133h-155.101867l113.390933-598.562133zM1687.552 544.085333l-21.504 113.595734h-308.0192c-3.754667 34.952533 2.8672 59.733333 19.797333 74.274133 16.861867 14.609067 47.5136 21.845333 91.9552 21.845333h178.039467l-21.504 113.595734h-194.423467c-42.257067 0-75.912533-3.822933-101.034666-11.4688a182.4768 182.4768 0 0 1-67.720534-37.6832c-55.296-50.244267-73.5232-124.859733-54.749866-223.914667a341.4016 341.4016 0 0 1 83.217066-168.209067c29.4912-32.768 61.917867-56.046933 97.348267-69.905066 35.362133-13.789867 79.6672-20.753067 132.778667-20.753067h205.346133l-21.504 113.595733h-194.423467c-40.072533 0-69.358933 6.7584-87.927466 20.206934-18.568533 13.5168-33.109333 38.434133-43.690667 74.820266h308.0192z m620.612267-208.622933l-21.504 113.595733h-258.8672c-29.832533 0-49.083733 1.501867-57.617067 4.369067-17.885867 5.870933-28.945067 20.0704-33.1776 42.5984-3.618133 18.978133 1.6384 33.518933 15.701333 43.690667 7.645867 5.870933 30.72 8.738133 69.358934 8.738133h86.289066c55.296 0 96.802133 11.6736 124.450134 34.952533 30.72 26.2144 41.233067 64.853333 31.607466 115.780267a222.6176 222.6176 0 0 1-52.906666 105.949867c-20.821333 25.531733-43.485867 42.257067-67.925334 50.244266-24.439467 8.055467-63.624533 12.014933-117.486933 12.014934h-302.557867l21.504-113.595734 286.037334-0.068266c18.773333-0.136533 32.3584-0.477867 40.7552-1.024 26.760533-2.8672 42.734933-17.8176 47.786666-44.782934 4.164267-21.845333-1.774933-36.727467-17.749333-44.782933-6.826667-3.822933-23.620267-5.9392-50.107733-6.417067l-100.420267-0.136533c-34.952533 0-61.303467-2.184533-79.0528-6.5536a115.0976 115.0976 0 0 1-47.3088-24.029867c-17.066667-13.789867-28.8768-32.904533-35.566933-57.344a171.758933 171.758933 0 0 1-2.116267-78.097066 193.604267 193.604267 0 0 1 81.92-126.702934c26.8288-18.909867 69.085867-28.398933 126.5664-28.398933h312.388267z m175.854933 0l37.2736-196.608h146.363733l-37.2736 196.608h135.441067L2744.32 449.194667h-135.441067l-36.6592 193.3312c-8.533333 45.192533-9.898667 73.591467-4.096 85.1968 9.079467 17.476267 29.218133 26.2144 60.552534 26.2144h57.890133l-21.504 113.595733h-105.949867c-63.351467 0-105.608533-15.291733-126.7712-45.8752-21.162667-30.583467-24.917333-81.92-11.195733-154.0096l41.3696-218.453333h-92.842667l21.504-113.595734h92.842667z" fill="#3A84FF" p-id="1575"></path></svg>